<?xml version="1.0" ?><svg data-name="Layer 1" id="Layer_1" viewBox="0 0 512 512" xmlns="http://www.w3.org/2000/svg"><defs><style>.cls-1{fill:none;stroke:#1d1d1d;stroke-linecap:round;stroke-linejoin:round;stroke-width:12px;}</style></defs><title/><circle class="cls-1" cx="224.11" cy="256" r="34.41"/><line class="cls-1" x1="237.61" x2="252.53" y1="268.63" y2="290.41"/><path class="cls-1" d="M274.28,221.59h27.39a20.64,20.64,0,0,1,20.64,20.64v0a20.64,20.64,0,0,1-20.64,20.64H274.28a0,0,0,0,1,0,0V221.59A0,0,0,0,1,274.28,221.59Z"/><line class="cls-1" x1="274.28" x2="274.28" y1="262.86" y2="290.41"/><line class="cls-1" x1="301.67" x2="318.38" y1="262.86" y2="290.41"/><path class="cls-1" d="M314.69,160h20.48A16.84,16.84,0,0,1,352,176.83v20.48"/><path class="cls-1" d="M352,314.69v20.48A16.84,16.84,0,0,1,335.17,352H314.69"/><path class="cls-1" d="M197.31,352H176.83A16.84,16.84,0,0,1,160,335.17V314.69"/><path class="cls-1" d="M160,197.31V176.83A16.84,16.84,0,0,1,176.83,160h20.48"/></svg>
